<?xml version="1.0" standalone="no"?>
<!DOCTYPE svg PUBLIC "-//W3C//DTD SVG 20010904//EN"
 "http://www.w3.org/TR/2001/REC-SVG-20010904/DTD/svg10.dtd">
<svg version="1.0" xmlns="http://www.w3.org/2000/svg"
 width="96.000000pt" height="96.000000pt" viewBox="0 0 96.000000 96.000000"
 preserveAspectRatio="xMidYMid meet">
<metadata>
Created by potrace 1.14, written by Peter Selinger 2001-2017
</metadata>
<g transform="translate(0.000000,96.000000) scale(0.100000,-0.100000)"
fill="#000000" stroke="none">
<path d="M498 871 c-30 -27 -33 -34 -36 -105 l-4 -76 -65 -32 c-101 -51 -153
-122 -153 -208 0 -89 69 -176 164 -206 52 -16 56 -20 56 -49 0 -57 -53 -79
-63 -26 -12 56 -86 66 -109 15 -25 -53 45 -124 122 -124 69 0 130 61 130 130
0 34 3 37 44 48 58 15 101 53 122 107 20 54 15 112 -15 153 -22 31 -97 72
-131 72 -16 0 -20 7 -20 33 0 26 7 36 39 56 85 52 105 157 41 214 -40 36 -80
35 -122 -2z m80 -82 c2 -15 -5 -32 -18 -44 -20 -18 -20 -18 -20 22 0 22 3 43
7 47 12 12 28 0 31 -25z m-135 -242 c-58 -33 -97 -103 -73 -132 20 -24 49 -17
70 18 l20 32 0 -77 0 -77 -30 9 c-85 24 -130 107 -99 181 11 28 73 79 109 91
23 7 26 -33 3 -45z m175 -90 c23 -22 26 -58 7 -100 -7 -18 -54 -47 -75 -47 -6
0 -10 34 -10 91 l0 91 28 -7 c15 -3 37 -16 50 -28z"/>
</g>
</svg>
